FFmpeg version SVN-r25716, Copyright (c) 2000-2010 the FFmpeg developers  built on Nov 10 2010 12:23:18 with gcc 4.1.2 20080704 (Red Hat 4.1.2-48)  configuration: --enable-libmp3lame --enable-shared --disable-mmx --arch=x86_64  libavutil     50.33. 0 / 50.33. 0  libavcore      0.12. 1 /  0.12. 1  libavcodec    52.94. 4 / 52.94. 4  libavformat   52.84. 0 / 52.84. 0  libavdevice   52. 2. 2 / 52. 2. 2  libavfilter    1.59. 0 /  1.59. 0  libswscale     0.12. 0 /  0.12. 0[mov,mp4,m4a,3gp,3g2,mj2 @ 0x111a44c0] max_analyze_duration reachedInput #0, mov,mp4,m4a,3gp,3g2,mj2, from '/RAID10/data/converted_video_files/35414.mov':  Duration: 00:00:35.00, start: 0.000000, bitrate: 403 kb/s    Stream #0.0(eng): Video: svq1, yuv410p, 521x371, 350 kb/s, 7.77 fps, 24 tbr, 24 tbn, 24 tbc    Stream #0.1(eng): Data: rtp  / 0x20707472, 50 kb/s[buffer @ 0x111a6a30] w:521 h:371 pixfmt:yuv410p[ffsink @ 0x111a6ca0] auto-inserting filter 'auto-inserted scaler 0' between the filter 'src' and the filter 'out'[scale @ 0x111c9400] w:521 h:371 fmt:yuv410p -> w:521 h:371 fmt:yuv420p flags:0x4Output #0, flv, to '/RAID10/data/converted_video_files/35414.flv':  Metadata:    encoder         : Lavf52.84.0    Stream #0.0(eng): Video: flv, yuv420p, 521x371, q=2-31, 600 kb/s, 1k tbn, 24 tbcStream mapping:  Stream #0.0 -> #0.0Press [q] to stop encodingframe=   59 fps=  0 q=3.9 size=     384kB time=7.29 bitrate= 431.4kbits/s    frame=  125 fps=119 q=3.4 size=     830kB time=15.54 bitrate= 437.5kbits/s    frame=  185 fps=121 q=3.2 size=    1287kB time=23.04 bitrate= 457.6kbits/s    frame=  231 fps=113 q=3.1 size=    1688kB time=28.79 bitrate= 480.1kbits/s    frame=  272 fps=110 q=3.1 Lsize=    2038kB time=33.92 bitrate= 492.3kbits/s    video:2034kB audio:0kB global headers:0kB muxing overhead 0.219038%